General
Format                                   : MPEG-PS
File size                                : 4.57 GiB
Duration                                 : 2h 6mn
Overall bit rate mode                    : Variable
Overall bit rate                         : 5 158 Kbps

Video
ID                                       : 224 (0xE0)
Format                                   : MPEG Video
Format version                           : Version 2
Format profile                           : Main@Main
Format settings, BVOP                    : Yes
Format settings, Matrix                  : Custom
Duration                                 : 2h 6mn
Bit rate mode                            : Variable
Bit rate                                 : 4 607 Kbps
Maximum bit rate                         : 9 800 Kbps
Width                                    : 720 pixels
Height                                   : 480 pixels
Display aspect ratio                     : 16:9
Frame rate                               : 23.976 fps
Standard                                 : Component
Color space                              : YUV
Chroma subsampling                       : 4:2:0
Bit depth                                : 8 bits
Scan type                                : Progressive
Scan order                               : 2:3 Pulldown
Compression mode                         : Lossy
Bits/(Pixel*Frame)                       : 0.556
Stream size                              : 4.08 GiB (89%)
Color primaries                          : BT.601 NTSC
Transfer characteristics                 : BT.601
Matrix coefficients                      : BT.601

Audio
ID                                       : 189 (0xBD)-128 (0x80)
Format                                   : AC-3
Format/Info                              : Audio Coding 3
Mode extension                           : CM (complete main)
Format settings, Endianness              : Big
Muxing mode                              : DVD-Video
Duration                                 : 2h 6mn
Bit rate mode                            : Constant
Bit rate                                 : 448 Kbps
Channel(s)                               : 6 channels
Channel positions                        : Front: L C R, Side: L R, LFE
Sampling rate                            : 48.0 KHz
Bit depth                                : 16 bits
Compression mode                         : Lossy
Delay relative to video                  : -34ms
Stream size                              : 406 MiB (9%)